<svg fill="none" height="252" viewBox="0 0 634 252" width="634" xmlns="http://www.w3.org/2000/svg"><path clip-rule="evenodd" d="M633.17 150.908c-.463-1.963-1.388-4.041-2.655-6.237-.807-1.385-2.077-3.348-3.922-6.004-.348-.461-.58-.807-.695-1.038-3.464-4.966-6.579-9.239-9.579-13.05-3.694-4.506-7.504-8.778-11.426-12.587-7.965-7.738-17.083-15.014-27.239-21.827-3.232-2.078-6.81-4.273-10.848-6.468-2.656-1.384-6.35-3.232-10.966-5.541l-.115-.116c-.232 0-.577-.232-.924-.462-.46-.346-.924-.461-1.155-.693-.23 0-.345-.117-.46-.231.23 0 .347-.117.576-.23.695-.231.923-.81.807-1.502v-1.155c-.112-.347-.228-.578-.576-.808 0 0 0-.115-.116-.232-.231-.23-.344-.461-.576-.692a43.127 43.127 0 00-3.346-3.465c-.693-.576-1.155-1.155-1.501-1.5h-.114c-.693-.578-1.848-1.386-3.464-2.31-.23-.117-.463-.23-.579-.346h-.114c.114-.117.114-.117.23-.117.347-.115.58-.346.695-.576.228-.232.345-.348.46-.578.116-.346.116-.578.116-.81.117-.23.231-.577.117-.808 0-1.038-.808-1.847-2.196-2.308-.46-.233-1.036-.578-1.847-1.04-2.076-1.155-3.692-1.963-4.847-2.31-.232-.116-.576-.231-.923-.347-1.5-.46-2.655-.81-3.348-1.039a13.015 13.015 0 00-3.461-.462h-.229l-12.584.579h-.344c-.233-.23-.58-.347-.924-.23 0-.117-.116-.233-.231-.35 0-.115-.116-.345-.116-.691l-.23-2.078c-.114-1.155-.462-2.658-1.155-4.504-.116-.463-.347-.924-.576-1.388-.347-.46-.695-.692-1.038-.922-.577-.693-1.155-1.155-2.08-1.502 0 0-.117-.116-.343-.116-.808-.345-1.504-.46-2.08-.46-.344 0-.693.115-1.268.345-.347.115-.695.231-.808.231-.115 0-.232 0-.232.115-.924.232-1.963.809-3.001 1.617-.229.116-.346.232-.461.232 0 0 0 .116-.115.116-.693.576-1.617 1.5-2.656 2.885l-.924.693-.115.117c0 .114 0 .114-.113.114a2.823 2.823 0 01-.58.808l-1.038.116c-.113-.116-.345-.23-.578-.346-.459-.23-.807-.346-1.038-.461-.808-.231-1.844-.694-3.346-1.155-18.699-6.583-32.663-11.318-42.011-14.551-15.467-5.196-29.431-9.701-41.783-13.395-30.817-9.24-58.515-15.706-82.985-19.402-2.654-.346-5.538-.46-8.54-.346-2.309.115-5.194.23-8.541.577-.692.116-1.73.232-3.231.346-1.384.231-2.423.346-3.116.346h-.808c-.347 0-.577.117-.694.232-.807.117-1.154.462-1.384.924-.231.23-.231.577-.231.925 0 .23.116.46.231.692.115.23.23.461.463.692.23.232.46.232.807.232 0 0 0 .116.114.116.464.114.811.231 1.271.114.231.117.577.117 1.039.231.924.115 1.615.232 2.308.232-3.232.23-6.347.577-9.464.924-21.353 2.192-41.087 6.236-59.208 12.125-14.199 4.966-26.199 10.624-36.012 16.975-.232.116-.46.231-.808.462-7.617 4.966-13.388 8.43-17.195 10.51-6.35 3.234-12.236 5.426-17.774 6.465-17.545 3.35-33.704 8.778-48.131 16.052-.461.232-1.039.578-1.847.924-1.153.693-2.076 1.157-2.54 1.271-.344.117-.46.23-.691.461 0 0 0 .117-.117.117a1.65 1.65 0 00-.46.346c-.347.115-.576.346-.808.578-.347.461-.463.924-.463 1.5 0 .346.116.577.348.809.115.232.228.347.576.692.231.116.463.233.807.233h.117c.347.23.691.23 1.04.23l1.846-.23h.228c-.115 0-.115.115-.228.115h-.115c0 .115-.117.115-.117.115-25.046 8.315-48.127 19.631-69.364 33.952-3.003 1.847-6.35 4.618-9.926 8.082-.118.116-.23.232-.58.464-.23.229-.346.345-.575.577-.23.115-.463.232-.694.462-.345.461-.577.924-.461 1.502 0 .692.348 1.268.808 1.732h-.116c-.231.231-.576.46-.808.692a4.433 4.433 0 00-.691.577c-.117 0-.233.116-.348.116 0 .116-.113.231-.345.461-2.77 3.004-4.962 5.196-6.349 6.814-2.308 2.541-4.154 4.965-5.77 7.275-3.463 4.734-6.694 9.932-9.35 15.706-3.114 7.276-5.194 15.705-6.345 25.06-1.387 10.046-1.731 18.937-.925 26.676.461 4.734 2.193 10.508 5.196 17.322 0 0 0 .116.115.116.113.231.344.577.576 1.04.923 1.385 1.5 2.421 1.963 3.117l.113.117c.347.343.808.923 1.502 1.615.693.577 1.153 1.039 1.384 1.385 0 0 0 .117.116.117.229.231.693.691 1.152 1.271.925 1.153 1.732 1.845 2.427 2.309.344.46.693.924 1.268 1.268v.117c.116 0 .116.115.231.115.117.115.228.232.228.347.12.228.233.462.465.577.23.232.575.345.924.232h.806c.465.345 1.157.576 1.965.461.228 0 .46-.116.691-.116.115.231.228.576.46.808 0 0 .116 0 .116.115.463.58 1.039.809 1.615.692h.692c.348-.112.58-.23.808-.46.232-.347.347-.579.232-.924v-1.04c-.116-.46-.232-.924-.46-1.385 0-.347.115-.691.115-1.156.113-.46.113-.807.113-.924.116-.115.116-.115.116-.229.116-.579.23-1.387.347-2.427.345-2.077.693-3.694 1.04-4.849v.347c0 .578 0 1.502.115 2.773.23 1.845.809 3.46 1.617 4.849.112.577.344 1.152.576 1.616.23.348.575.808 1.04 1.385.228.232.347.349.46.464 0 .113.115.113.115.228.231.233.348.348.46.464 0 .348.12.692.348.808l.808.692c.348.233.576.347.923.233 1.155-.116 1.731-.465 1.848-1.272.115-.461.232-.925.232-1.5.115-1.154.46-2.888 1.04-5.082 0-.232 0-.345.11-.46v-.464c0-.232.117-.693.35-1.268.114-.464.23-.809.346-1.041.461-.576 1.038-1.271 1.728-2.193.924-1.039 1.503-1.852 1.964-2.427.115-.114.347-.345.464-.576.111-.117.228-.234.343-.348.116 0 .233-.116.348-.116v.116l.115 1.27a12.108 12.108 0 000 2.889c.113.922.345 1.845.577 2.769.116.693.46 1.504 1.04 2.313 0 .228.115.46.228.692a.86.86 0 01.116.461c.115.347.232.577.579.807l.113.117c.463.348.927.575 1.271.575.347.233.692.233 1.04.233.228 0 .575-.116.923-.233 0 0 .113 0 .113-.115.347 0 .579-.112.81-.345.229-.347.693-.692 1.268-.924.232-.232.46-.461.58-.692.113-.231.228-.576.575-1.04.345-.576.577-.924.693-1.27.115-.347.232-.694.576-1.039 0-.116.116-.232.116-.232l.115-.115v.347c0 .345 0 .809.117 1.385v1.499c.115.581.231 1.157.344 1.619.115.579.232 1.039.579 1.386.115.578.344 1.04.693 1.385h.231c.46.464 1.035.577 1.5.577.343-.113.691-.228.807-.46l1.04-1.154c0-.119.116-.231.116-.231 1.383-2.541 2.65-4.39 3.806-5.546.116-.115.116-.115.116-.228 1.039-1.156 1.964-2.079 2.772-2.889.344-.114.691-.46 1.038-.923.113.344.345.576.578.809.23.343.575.462.923.576.344.231.691.348 1.151.231.349 0 .808-.231 1.04-.464.464-.229.808-.576 1.27-1.152.23-.233.578-.46.921-.925.464-.464.812-.807 1.04-1.039a43.052 43.052 0 013.926-4.156c.923-.81 2.308-2.08 4.27-3.696.116 0 .116-.115.229-.115 2.196-1.156 3.694-1.849 4.619-2.196 0 0 .115-.114.232-.114.344-.231.575-.347.806-.347 0 0 0 .116-.115.116-.116.231-.232.345-.232.578-.231 1.846-.576 3.002-.923 3.811-.232.46-.461.808-.808 1.271-.232.229-.232.46-.232.808-.112 0-.112.113-.112.23-.232.346-.349.577-.349.808-.115.117-.115.231-.115.347-.115.23-.115.463-.115.693 0 .345.115.577.347.692.232.694.691 1.037 1.616.925.576 0 1.038-.231 1.383-.465a6.234 6.234 0 002.08-1.152c.231-.116.343-.23.46-.347 5.542-3.35 10.155-6.351 13.966-9.123 5.078-3.582 9.693-7.391 13.966-11.318l.23-.231c1.271-1.616 2.886-3.694 5.078-6.351l.116-.116c-.116.232-.116.346-.116.463-.116 0-.116.115-.116.232v.113l-.232.809c-.228.463-.344 1.039-.344 1.731l.116 1.041c.117.346.228.693.46.924.232.116.58.231.924.231l1.155-.115c.46-.116.924-.464 1.5-1.04l.232-.232c1.384-1.27 2.539-2.309 3.578-3.116v-.117c3.579-3.349 8.309-8.429 14.311-15.127.345-.462.692-.808.924-1.04v-.115c.112-.232.232-.348.344-.348.117-.114.232-.114.464-.229v.345l.344 3.695c-.112.464-.232 1.04-.112 1.849 0 .346.112.576.459.808l.117.116c.115.231.344.346.46.462l.116.114c.347.347.692.464 1.155.464.46-.117.808-.232 1.04-.578.46-.231.807-.578 1.268-1.04.115-.231.344-.578.575-.923.232-.348.232-.578.348-.578.117-.115.117-.23.232-.348 2.652-5.889 4.499-12.239 5.423-19.168 1.847-13.05 4.733-24.712 8.657-34.761.232-.577.808-1.501 1.615-2.771.691-1.154 1.271-2.078 1.731-2.886l.808-1.041h.116v.348l.116.116c.691 3.001 1.152 5.196 1.384 6.582.232 2.424.807 4.965 1.847 7.967.578 1.734 1.616 4.387 3.118 7.854.344 1.038.689 1.847.921 2.308l.58 1.388c0 .112.115.23.228.346 0 .115 0 .115.115.229l.116.116c.232.462.464.692.808.924.231.116.46.231.692.231.347 0 .579.115.808.115.347-.115.579-.23.807-.346.348-.115.58-.346.808-.578.232-.345.463-.576.463-.925.345-.46.692-1.037.924-1.5v-.461c.116 0 .229-.114.344-.346 0 0 .117 0 .117-.117 0 .117 0 .349.115.578v.346c1.04 3.234 2.771 6.814 5.194 10.626 0 .115.116.115.116.115.232.346.692.924 1.271 1.616.576.808 1.037 1.503 1.269 1.849.46.462 1.155 1.037 2.191 1.847.579.345.923.693 1.155.807.116.116.232.232.348.232.113 0 .345.231.575.462.345.23.693.461 1.04.577 0 .116.113.232.113.345.232.349.347.463.347.579l.116 1.27c-.231 1.502-.576 2.541-.923 3.351-.116.23-.232.46-.348.808-1.96 4.619-3.691 7.966-5.307 10.162-.695.924-1.272 1.616-1.502 2.195-.229.229-.576.46-.804.69-.349.232-.464.348-.696.464l-.114.116c-.117 0-.347.114-.81.114-2.54-.462-4.846-.808-7.038-1.038h-.232c-1.5.114-2.771.461-3.578.808-.693.346-1.384.807-2.308 1.616-.231.346-.461.46-.58.693-.919.461-1.499 1.27-1.959 2.308-.691.694-1.04 1.735-1.387 3.004-1.844 7.16-3.807 13.395-5.887 18.593-.691 1.385-1.499 2.541-2.306 3.58-.229.231-.576.462-.924.924-.231.347-.46.461-.575.578 0 0-.117.114-.234.114-.227.347-.575.576-.923.576h-.344c-.464-.113-.807-.229-1.155-.229-.464-.117-.924-.117-1.383-.117-.58.117-1.04.233-1.389.578-.23.232-.575.347-.923.577-.46.348-.808.578-1.036.693-.232.232-.463.347-.463.578-.232.578-.577 1.039-1.153 1.386-.23.117-.463.231-.695.347-.575.23-1.036.346-1.383.577-.116.116-.232.229-.347.346-.461.579-.808 1.156-1.04 1.732-.113.232-.345.575-.46.924-.229.464-.229.924-.229 1.271v.578a.854.854 0 00-.232.576s-.116.114-.232.114c-.231.234-.347.349-.463.466v.115c-.576.692-.804 1.384-.804 2.077-.232.576-.232 1.387-.232 2.081.112.807.46 1.732.923 2.884.113.116.229.232.229.347.579 1.268 1.5 2.425 2.887 3.466l5.885 4.848c.117.117.117.117.232.117 1.5.808 2.769 1.385 3.694 1.616h.113c.348.116.808.231 1.388.348.692.228 1.152.345 1.615.46h.345c1.386-.115 2.307-.46 3.003-.808.231-.117.459-.231.806-.46.345-.117.693-.232.925-.464.115-.116.228-.116.343-.345.117-.116.348-.347.58-.696.113-.111.228-.344.345-.344.115-.116.115-.232.231-.463 0-.116.116-.229.232-.461.228-.695.343-1.384.343-1.849 0-.115 0-.231.117-.46v-.231c.347-.233.691-.348.923-.577.232-.118.577-.231.925-.348.691-.232 1.268-.347 1.615-.579 9.464-2.885 18.582-6.35 27.354-10.506.229 0 .461-.117.808-.348.115.114.232.114.46.114 0 .234.116.349.116.466 0 .115.116.228.116.343.348.696.808 1.617 1.499 2.888 1.733 3.234 3.12 5.658 4.156 7.39 1.618 2.656 3.346 5.082 5.078 7.161.579.694 1.732 1.733 3.346 3.001 0 .117.117.117.117.117.115.116.347.23.579.347 1.844 1.04 3.347 1.845 4.498 2.194.581.23 1.272.46 2.311.576.461.116.692.116.809.231h.115c1.153.348 2.536.579 4.039.808.923 0 2.308.117 4.154.233h.577c1.847.115 3.922.115 6.349-.116 1.5 0 3.576-.232 6.578-.577.116 0 .344 0 .463-.116.113-.116.113-.116.23-.116.115 0 .23.116.347.232.229.113.344.231.46.345 0 .115.116.232.231.232.464.464 1.04.808 1.732 1.039.692.577 1.384.809 2.079.809 1.036.116 2.536.116 4.498-.116.116 0 .233-.116.348-.116 1.152-.577 2.308-1.152 3.463-1.848.112 0 .345 0 .576-.114.232 0 .344-.118.465-.118h.226c0 .118.117.118.117.118.925.229 2.195.229 4.039 0 1.27-.118 2.538-.694 3.81-1.618a4.787 4.787 0 011.267-.693c.233 0 .58.116.925.116.463.117.693.232.923.232.232.115.349.115.576.115l3.235-.347c.228 0 .345-.116.575-.232 0 0 .117-.113.346-.232.694-.461 1.155-.808 1.385-1.152.925-.576 1.501-1.272 1.961-2.31.348-.462.811-1.272 1.155-2.195.117-.116.117-.116.117-.229.115-.231.115-.347.115-.579l-.347-2.541c-.113-2.079-.692-4.041-1.733-6.005-.459-1.152-1.381-2.424-2.766-4.04-.463-.81-1.388-1.502-2.656-2.194 0 0-.116 0-.116-.116-.807-.579-1.615-.924-2.194-.924-.693-.232-1.616-.349-2.652-.232-.116.117-.347.117-.579.232-.116.117-.461.345-1.036.693-.58.231-1.041.463-1.271.692-.464.231-.808.464-.925.464h-.115c-.228-.117-.345-.117-.576-.117h-.807c-.461-.116-.808-.116-1.155-.116-.577-.116-1.269-.116-1.965-.116-.575.116-1.384.232-2.075.577-.464.115-1.039.347-1.847.808 0 .116-.117.116-.117.116-.115.116-.228.233-.344.347-.232.233-.348.348-.579.461h-.576c-.575-.461-.923-.692-1.268-.924 0-.114-.115-.114-.232-.228-.806-.693-1.271-1.157-1.499-1.501-.115-.116-.115-.232-.232-.232-.117-.116-.232-.231-.46-.347-.812-.692-1.387-1.273-1.731-1.849-.117 0-.117-.113-.117-.113-.115 0-.115 0-.115-.119-3.116-2.884-5.426-5.079-6.693-6.696-.117-.116-.349-.46-.58-.693-.345-.345-.462-.578-.462-.692-.114-.231-.113-.346-.23-.463-.117-.232-.117-.461-.232-.578 0-.23 0-.461.115-.575.234-.695.464-1.271.693-1.618 1.155-1.041 2.427-2.425 3.926-4.273.46-.462 1.268-1.155 2.192-2.079 3.347-3.003 5.885-5.312 7.618-6.928v.462c0 .23.114.462.23.693.232.346.576.578.925.692.343.232.691.232 1.038.232.23 0 .577-.117.925-.463.228 0 .46-.115.69-.232l.117-.114a.87.87 0 00.576-.232c.344-.229.808-.693 1.499-1.154 3.233-2.424 5.543-4.504 7.042-6.004 2.191-2.426 4.156-4.852 5.887-7.391 1.615-2.772 2.77-5.199 3.578-7.391l.117.114c.228.925.808 1.386 1.727 1.272h.695c.808-.117 1.5-.695 1.96-1.848l.808-1.503h.115v-.229c1.272-2.311 2.08-4.041 2.656-5.198.923-1.962 1.615-3.695 2.08-5.426.115-.117.228-.463.345-.695 0-.114 0-.114.114-.114.117-.231.233-.347.346-.462l1.155-.116c1.615.231 3.348.231 5.195 0 1.152-.116 3-.461 5.539-.924.691-.23 1.155-.347 1.499-.347l.695-.115c0 .232-2.079 1.27-1.846 1.502v.115c0 .231.113.578.229.693.114.232.346.463.578.692.344.232.575.232.923.232l1.039-.115c.346 0 .577-.117.922-.346.23-.117.463-.117.579-.117.114 0 .114 0 .23-.114.229 0 .576-.117 1.039-.347 3.694-1.27 8.887-3.004 10.964-3.695.115 0 .23-.116.462-.116.114-.116.114-.116.231-.116.114.116.346.116.577.116h.23c.463.345.694.577.924.923.114.23.114.23.229.347.579.461.925.808 1.271 1.04.577.462 1.153.692 1.731.692.229-.116.578-.116.809-.346.114 0 .23-.115.461-.233.116-.113.347-.113.347-.113.114-.116.231-.116.344-.116.116.116.116.229.233.347.115 0 .115.231.115.692 0 .116.116.231.116.347 3.116 6.003 5.655 10.508 7.731 13.627.117.23.347.461.694.808.231.346.46.578.577.809 0 .114.115.229.231.229l1.269 1.04c.461.463 1.269.577 2.308.463.578 0 1.272-.463 1.848-1.27a3.97 3.97 0 00.808-1.733c.114.115.23.115.23.231 0 .114.114.231.231.345 4.385 5.889 8.426 10.856 12.117 14.899l.116.114 1.5 1.502c0 .116.115.116.232.23.115.117.231.231.462.578.113.117.229.231.346.347v.462c-.233.231-.46.462-.693.576-.232.115-.347.349-.46.578-.232.578-.808 1.618-1.503 3.003-.577 1.387-1.152 2.31-1.385 3.004h-.114l-.116-1.388c-.117-.807-.346-1.385-.808-1.846-.232-.232-.46-.346-.693-.346-.115-.117-.347-.117-.46-.117-.347-.232-.695-.232-1.038-.232-.349 0-.693.232-1.041.463-.231 0-.575.115-.922.346h-.117c-.232.116-.46.232-.691.462-.117.23-.347.347-.461.463-.116-.116-.116-.347-.347-.578v-.115c-.116-.346-.232-.578-.461-.809-.579-.346-1.271-.461-2.079-.461-.232.115-.575.229-.923.461h-.117c-.344.117-.691.231-.805.577a3.122 3.122 0 00-.464.578c-.344.347-.577.693-.806.925 0 .115-.114.115-.114.229-.117.117-.232.463-.464.809-.808 1.269-1.268 2.311-1.384 3.233-1.616 3.35-2.541 7.276-2.884 11.779v.116c0 1.732 0 3.349.229 5.081.114 1.616.461 3.348.808 4.965v.116c.345.925 1.039 2.425 2.077 4.389.346.575.578 1.041.807 1.384l.117.117c.23.347.577.808 1.037 1.385a36.003 36.003 0 002.311 3.12c.114.115.114.115.227.115l.463.461c1.154.807 2.076 1.503 2.886 1.848 2.539 1.732 4.733 2.656 6.464 2.772 2.884.692 4.962 1.152 6.346 1.269h1.272c.575-.117 1.384-.345 2.539-.809 3.231-1.036 6.577-2.885 9.925-5.541 2.195-1.732 3.811-3.005 4.962-4.044 1.615-1.501 3.231-3.117 4.501-4.733 3.581-3.694 7.159-7.966 10.849-12.819 0-.115.117-.231.117-.346.115-.232.347-.461.693-.809v-.115l1.385-.115c.23 0 .461.115.577.23l.348.348c.919.229 2.306.923 4.038 1.847 1.847.924 3.347 1.616 4.27 1.964.229.112.576.231.925.46.115.117.228.117.343.231.117.117.117.229.233.463l.347.695.113 1.152h-.229l-1.386.117a2.745 2.745 0 00-1.501.807c-.23.232-.343.577-.343.925v.115c-.233.348-.233.808-.233 1.041.116 1.036.346 1.732.693 2.192v.115c.347 1.385.691 2.426 1.038 3.118.461 1.156 1.153 2.081 1.961 2.888 1.155 1.617 2.771 3.578 4.965 5.773.114.117.229.117.229.233a8.82 8.82 0 011.731 1.152c1.731 1.156 3.118 2.08 4.271 2.656 3.347 1.734 6.577 2.773 9.465 3.12 2.539.345 4.617.462 6.349.345.808-.115 1.616-.232 2.422-.46h.117v.228c0 .349.113.696.229.925.116.116.347.347.696.579.226.231.575.345.919.345l1.04-.114a5.46 5.46 0 001.731-.694c2.887-.692 5.886-1.965 8.887-3.925h.117c1.268-1.156 2.308-1.964 2.884-2.657v-.117l.232-.231c.576-.46.808-.921 1.038-1.268l.117-.117c.112-.115.229-.115.344-.232.115.232.347.465.576.696.464.345.924.577 1.502.461h.693c.232-.116.345-.116.575-.232.233-.229.464-.46.693-.693.232-.115.348-.232.579-.46.693-.808 1.501-2.081 2.307-3.696a12.979 12.979 0 001.5-4.505c.233-1.962.464-3.465.58-4.503.113-1.847.113-3.467-.116-4.967v-.112c-.807-3.353-1.503-5.892-2.311-7.623-1.614-4.044-4.73-9.009-9.349-14.667-2.539-3.233-6.462-7.967-11.888-14.32-8.424-9.816-14.427-17.323-18.118-22.288-.116-.346-.232-.808-.349-1.617v-.115c-.114-.925-.114-1.5 0-1.848 3.811-10.507 6.234-21.25 7.387-32.334v-1.041c.116-.577.116-1.037.116-1.385l-.116-.925.464-.575c.114 0 .231-.117.231-.117.229-.116.461-.23.576-.23h.232c4.154-1.502 8.541-2.656 13.271-3.579 7.271-1.272 13.852-2.31 19.623-2.888 2.306-.233 4.614-.462 6.924-.576 10.966-.695 21.005-.809 30.238-.348 10.62.462 20.778 1.731 30.355 3.812 25.162 5.542 50.208 13.855 74.906 25.174v.115c2.539 1.04 6.119 3.117 10.849 6.236 1.847 1.156 3.235 2.078 4.154 2.657h.117c1.387.692 2.654 1.27 4.042 1.616h.46l2.54-.231c.347-.115.922-.346 1.846-.924.117-.116.231-.116.343-.231l.349-.346s.116-.114.231-.231c.692-.577 1.04-1.154 1.152-1.616.116-.232.116-.348.116-.464 0-.114 0-.23.117-.344.115-.581.115-.924.115-1.156-.115-1.154-.348-1.964-.692-2.541z" fill="#fecc07" fill-rule="evenodd"/></svg>