<svg xmlns="http://www.w3.org/2000/svg" width="32" height="32" viewBox="0 0 32 32"><path d="M12.071 28.503l-.504-.147-.168.579.492.146c.257.075.432.022.49-.174s-.064-.333-.31-.404zm17.609-8.69c.194.054.332-.071.4-.324l.139-.512-.582-.159-.138.503c-.071.265-.016.44.181.493zM7.226 4.966c-.131-.152-.315-.127-.509.04l-.404.345.39.459.398-.339c.205-.174.258-.349.125-.505zm20.185 2.448l-.01-.015-.928.156.505.69.432-.83zm-2.065 18.383l.877.326.013-.012-.269-.902-.621.587zm4.503-10.369c-.403-.015-.67.318-.689.772s.216.812.621.828.668-.289.688-.775-.229-.809-.619-.825z"/><path d="M16 .251C7.316.251.251 7.316.251 16S7.316 31.749 16 31.749 31.749 24.684 31.749 16 24.684.251 16 .251zm14.811 14.054l-.467.071-.191-1.232-.469.072.168 1.081-.467.072-.168-1.081-.743.117-.099-.649 2.147-.332zm-.617-2.821l-2.075.649-.196-.633 2.076-.642zm-.844-2.133l-1.533.729.492.973-.432.204-.781-1.585 1.965-.928zm-1.702-2.486l.385.525-1.095 2.183-.425-.583.216-.398-.661-.902-.454.072-.396-.549zm-3.501-2.162c.463-.484 1.218-.413 1.838.176.209.197.369.444.462.721l.004.012.015.049-.52.204-.015-.059a1.202 1.202 0 00-.31-.541.802.802 0 00-.558-.244h-.001c-.157 0-.3.065-.402.169a.523.523 0 00-.147.364v.021-.001c.012.228.113.43.27.574l.001.001c.167.157.383.264.624.295l.006.001.067.009-.191.541-.048-.011a1.82 1.82 0 01-.832-.457l.001.001c-.616-.579-.723-1.336-.261-1.821zm-2.37-2.464l1.688.89-.216.421-1.107-.583-.216.419.973.51-.216.421-.973-.511-.35.666-.581-.306zm-3.939-.044c.089-.322.323-.575.627-.687l.007-.002a1.71 1.71 0 011.085-.013l-.012-.003c.821.231 1.268.844 1.088 1.488a1.014 1.014 0 01-.618.688l-.007.002a1.4 1.4 0 01-.511.094h-.016.001a2.095 2.095 0 01-.576-.089l.015.004c-.815-.226-1.262-.837-1.081-1.481zm-2.872-.96l.624.792.541-.848.749-.035-.973 1.397.038.819-.649.029-.037-.808-1.091-1.311zm-.904.05l.088.466-.796.151.318 1.665-.649.13-.324-1.667-.799.152-.071-.47zm-2.805.701l.694 2.059-.628.21-.689-2.064zm-2.494 1.01l.079-.042v.008a1.81 1.81 0 01.742-.172h.056l.013.525h-.058a1.103 1.103 0 00-.587.128l.006-.003c-.148.074-.31.19-.256.305s.232.048.541-.064h.016c.498-.183.843-.108 1.024.23a.613.613 0 01.047.486l.001-.004c-.077.253-.308.493-.649.673-.27.15-.591.241-.933.249H8.75l-.026-.558h.061a1.314 1.314 0 00.724-.146l-.007.003c.114-.061.372-.222.29-.374-.065-.121-.243-.067-.507.03l-.128.045c-.462.146-.765.059-.931-.263-.186-.362.03-.788.538-1.057zM6.56 4.617c.503-.432.919-.299 1.123-.059a.636.636 0 01.015.826l.001-.001 1.01.248-.588.502-.886-.249-.227.194.495.582-.499.426-1.405-1.652zM4.791 6.303l.365.292L4.35 7.6l.275.222.709-.885.374.296-.709.885.31.25.844-1.059.369.295-1.256 1.572-1.69-1.356zM2.36 10.127l1.604.066-.957-1.297.324-.611 1.409 1.972-.308.6-2.415-.065zm-.373 1.081l2.054.72-.216.626-2.054-.72zm-.749 3.505l1.554-.996-1.386-.199.087-.589 2.147.31-.099.706-1.6 1.014 1.427.208-.085.589-2.154-.308zm.077 3.568l1.258-.094c.294-.022.432-.216.405-.585v-.014a.58.58 0 00-.168-.409.42.42 0 00-.317-.092h.002l-1.258.094-.049-.641 1.333-.101a.79.79 0 01.586.188l-.001-.001c.222.191.355.516.385.938.053.722-.258 1.216-.793 1.256l-1.333.097zm.737 2.378l.445-.159.432 1.214.331-.117-.381-1.069.445-.159.383 1.075.376-.133-.453-1.278.444-.159.675 1.896-2.048.727zm2.091 4.222l.695-.432-.603-.973-.696.432-.339-.548 1.848-1.138.339.548-.737.455.603.973.742-.458.339.548-1.858 1.142zm2.255 2.528l-1.578-1.64.339-.332.562.584 1.222-1.176.456.472-1.223 1.181.562.583zm2.054.547L8 27.725l-.441.231.083-.492-.357-.348.494-.072.221-.449.216.448.494.072-.351.345zm.618 1.178l1.015-1.922.586.31-1.015 1.921zm3.928-.143l-.018.069a.65.65 0 01-.683.467h.003l.354.982-.743-.216-.281-.877-.288-.085-.216.734-.638-.179.609-2.082 1.211.352c.549.16.734.523.681.836zm1.666 1.793l-.666-.068-.837-2.27.742.076.533 1.514.855-1.373.687.071zM4.054 16C4.054 9.402 9.402 4.054 16 4.054S27.946 9.402 27.946 16 22.598 27.946 16 27.946c-6.594-.008-11.938-5.352-11.946-11.945V16zm12.675 14.871h-.662v-2.173h.662zm2.766-.407l-1.491-1.166.279 1.405-.584.116-.422-2.128.727-.146 1.455 1.128-.27-1.364.584-.117.422 2.129zm1.777-.453l-.948-1.952 1.75-.849.206.422-1.16.562.154.318 1.021-.495.206.422-1.025.502.174.359 1.221-.591.205.422zm3.016-1.984l-.44-.237-.444.229.089-.491-.357-.352.494-.068.226-.445.216.451.493.076-.36.345zm2.029-1.289l-2.297-.816.521-.495.422.162.815-.767-.128-.44.494-.468.649 2.373zm1.475-1.621l-1.706-1.352.411-.517 1.706 1.347zm1.793-3.109l-1.782.504 1.265.593-.255.541-1.966-.928.306-.649 1.826-.506-1.303-.616.253-.541 1.963.921zm.845-2.281a1.028 1.028 0 01-.373.592l-.002.002a.611.611 0 01-.349.108H29.7a.649.649 0 01-.649-.649l.002-.05v.002l-.973.365.204-.746.872-.292.079-.289-.736-.202.173-.632 2.093.569zm.525-3.443c-.037.83-.507 1.398-1.152 1.398h-.043c-.67-.027-1.113-.643-1.081-1.498.003-.387.135-.743.355-1.028l-.003.004a1.022 1.022 0 01.843-.381h-.002c.671.027 1.117.642 1.081 1.495z"/><path d="M20.579 2.962c.178-.637-.285-1.205-1.051-1.422s-1.459.031-1.639.669c-.174.621.263 1.198 1.049 1.418s1.463-.029 1.641-.666zm-2.633-.737a.918.918 0 01.562-.616l.006-.002a1.598 1.598 0 011.015-.011l-.011-.003c.757.216 1.177.772 1.014 1.356a.91.91 0 01-.559.617l-.006.002a1.578 1.578 0 01-1.026.007l.011.003c-.759-.214-1.174-.767-1.006-1.352zm-5.652 25.983l-1.159-.337-.578 1.978.527.151.216-.734.368.108.281.877.613.177-.345-.945.008-.014c.306.031.599-.09.695-.424.094-.314-.075-.678-.625-.838zm.576.822l-.011.036c-.089.251-.324.381-.626.349h-.036l-.037.067.313.865-.483-.141-.282-.877-.447-.131-.216.734-.423-.121.548-1.875 1.107.324c.555.159.665.514.591.769z"/><path d="M16 .143C7.256.143.143 7.257.143 16S7.257 31.857 16 31.857 31.857 24.743 31.857 16 24.743.143 16 .143zm0 31.66C7.272 31.803.197 24.728.197 16S7.272.197 16 .197C24.728.197 31.803 7.272 31.803 16c0 8.728-7.075 15.803-15.803 15.803z"/><path d="M29.112 21.561l-.009.018-1.913.53-.271.577 1.868.881.209-.441-1.328-.624.008-.016 1.87-.529.275-.602-1.866-.876-.206.441zm-1.131-1.009l1.769.829-.242.531-1.87.529-.04.088 1.326.624-.162.343-1.77-.835.237-.506 1.913-.53.043-.09-1.365-.64zm-23.938-.608l-.343.122.453 1.278-.478.17-.383-1.075-.344.122.381 1.069-.432.154-.432-1.214-.344.122.614 1.736 1.946-.69zm-1.853.78l.242-.085.432 1.214.534-.19-.381-1.069.242-.085.383 1.075.579-.206-.453-1.278.241-.085.601 1.693-1.844.649zm12.221 9.42l-.552-1.57-.621-.064.795 2.155.6.062 1.248-1.946-.565-.058-.885 1.421zm.932-1.363l.444.045-1.182 1.843-.534-.055-.757-2.041.499.051.564 1.574h.086zm-9.371-4.963l-.742.458-.661-1.069.742-.458-.282-.456-1.756 1.081.282.456.696-.432.661 1.068-.696.432.277.456 1.761-1.081zM4.29 24.916l.697-.432-.718-1.16-.696.432-.222-.364 1.664-1.024.225.364-.742.458.718 1.161.738-.459.225.364-1.668 1.023zm25.58-10.088c-.643-.026-1.105.541-1.137 1.352s.379 1.416 1.028 1.442 1.107-.557 1.139-1.352c.032-.793-.369-1.415-1.03-1.442zm.973 1.429v.011c-.032.789-.476 1.323-1.081 1.297s-1.008-.595-.973-1.386c.002-.362.124-.695.327-.963l-.003.004a.905.905 0 01.71-.343h.045c.607.029 1.009.595.979 1.379zm-2.324-2.915l.744-.116.168 1.081.36-.056-.168-1.081.576-.089.191 1.232.36-.055-.275-1.773-2.043.316zm2.17.871l-.253.039-.191-1.232-.683.108.168 1.081-.253.04-.168-1.081-.744.116-.067-.432 1.933-.299zM9.138 4.267c.275-.093.591-.252.699-.051.08.149-.058.311-.312.449a1.377 1.377 0 01-.751.148h.005l.019.442a1.99 1.99 0 00.922-.247l-.01.005c.541-.284.781-.708.579-1.081s-.596-.338-.958-.205c-.315.115-.541.199-.621.042-.056-.108.016-.243.277-.381a1.154 1.154 0 01.613-.132h-.003l-.011-.413a1.79 1.79 0 00-.809.21l.01-.005v-.005c-.451.239-.696.632-.515.987s.522.345.865.237zm-.404-1.132l.079-.042c.209-.112.455-.183.717-.197h.004l.009.301h-.004c-.21 0-.408.052-.582.144l.007-.003c-.345.182-.354.346-.299.453.108.196.354.108.67-.011l.016-.005c.447-.164.738-.108.892.181a.5.5 0 01.039.401l.001-.004c-.068.226-.281.442-.598.61a1.92 1.92 0 01-.829.233h-.005l-.015-.324a1.436 1.436 0 00.723-.162l-.008.004c.414-.224.387-.423.334-.522-.108-.216-.393-.108-.639-.019a2.673 2.673 0 01-.124.044c-.408.129-.662.062-.801-.21-.169-.331.077-.665.413-.871zm1.37 24.15l-.964 1.826.49.258.965-1.825zm-.497 2.012l-.393-.208.913-1.73.393.208zM7.427 6.655l-.496-.582.291-.247.887.249.485-.415-.973-.238-.008-.012c.195-.239.255-.55.029-.815-.216-.249-.608-.308-1.048.066l-.924.781 1.339 1.57zm-.798-1.952c.442-.376.8-.274.973-.072.185.216.174.496-.03.746l-.026.029.041.064.891.216-.383.324-.886-.249-.355.306.497.582-.335.287L5.747 5.45zm1.557 22.39L8 26.718l-.185.375-.414.061.299.292-.07.412.37-.194.375.194-.075-.412.299-.292zm.117.666L8 27.603l-.298.156.057-.332-.242-.236.334-.049.149-.303.15.303.334.049-.242.236zm21.002-9.028l-.101.369-.872.292-.169.616.939-.352.013.006c-.027.307.098.598.432.69.316.087.678-.087.83-.643l.324-1.168L28.713 18l-.145.529zm-.548-.665l1.883.512-.308 1.116a.925.925 0 01-.331.53l-.002.002a.506.506 0 01-.436.073l.004.001c-.273-.076-.421-.312-.392-.634v-.036l-.067-.035-.865.324.133-.486.872-.292.122-.449-.735-.206zm-21.435 7.25l-.381-.395-1.222 1.176-.562-.584-.263.256 1.504 1.562.263-.253-.562-.583zm-.737 1.762l-.185.177-1.427-1.484.186-.181.562.584 1.222-1.176.301.317-1.221 1.181z"/><path d="M16 4.108C9.432 4.108 4.108 9.432 4.108 16S9.432 27.892 16 27.892 27.892 22.568 27.892 16 22.568 4.108 16 4.108zm0 23.73c-6.538 0-11.838-5.3-11.838-11.838S9.462 4.162 16 4.162c6.538 0 11.838 5.3 11.838 11.838-.007 6.535-5.303 11.83-11.837 11.838H16zm.675.919h-.553v2.065h.553zm-.054 2.011h-.445v-1.957h.445zm2.631-2.418l.284 1.438h-.017l-1.529-1.189-.649.13.4 2.022.478-.094-.293-1.479h.019l1.563 1.228.621-.128-.4-2.023zm.271 1.997l-1.559-1.224h-.108l.295 1.491-.372.072-.374-1.916.571-.113 1.529 1.185h.102l-.287-1.45.372-.073.378 1.917zm3.125-26.104l.17-.324-.973-.51.271-.516 1.107.583.17-.324-1.592-.839-.96 1.83.484.255.35-.666zm-1.351.081l-.389-.204.91-1.73 1.497.788-.12.228-1.107-.583-.324.612.973.51-.119.228-.973-.511zM3.336 8.382l-.265.504.991 1.349-.008.015-1.663-.068-.29.558 2.295.062.28-.541zm1.029 2.364l-2.175-.058.235-.451 1.663.068.038-.076-.99-1.348.208-.397 1.272 1.786z"/><path d="M6.162 7.386l-.844 1.059-.395-.317.709-.885-.29-.229-.709.885-.359-.289.806-1.005-.281-.227L3.651 7.81l1.605 1.289 1.189-1.485zm-.913 1.638L3.728 7.802l1.081-1.348.197.16L4.2 7.619l.443.356.709-.885.205.162-.709.885.479.384.844-1.062.2.161zm-1.811 8.543c-.054-.757-.44-1.109-.911-1.075l-1.279.096.04.535 1.204-.09c.222-.017.508.081.541.561s-.211.624-.455.642l-1.204.09.042.535 1.279-.096c.474-.036.798-.463.744-1.199zm-.748 1.144l-1.225.092-.034-.432 1.15-.085c.205-.015.541-.128.505-.699v-.004a.688.688 0 00-.205-.49.531.531 0 00-.397-.112h.003l-1.15.085-.031-.427 1.225-.092a.672.672 0 01.507.162l-.001-.001c.199.172.319.47.347.865.05.667-.215 1.104-.693 1.139zM25.639 7.705l.453-.072.701.956-.216.398.352.483 1.042-2.071-.347-.472-2.309.324zm2.27-.302l-.99 1.962-.28-.384.216-.398-.741-1.01-.452.072-.253-.35 2.188-.312zm-2.656-.471l.152-.432a1.174 1.174 0 01-.661-.311l.001.001c-.31-.299-.395-.757-.124-1.036s.718-.248 1.042.07c.153.153.266.345.322.56l.002.009.412-.161a1.723 1.723 0 00-.452-.711l-.001-.001c-.572-.541-1.306-.649-1.761-.177s-.324 1.189.259 1.747c.218.21.492.365.797.44l.012.002zm-1.027-2.151c.419-.44 1.112-.367 1.685.178.183.174.327.389.416.63l.004.011-.308.12a1.307 1.307 0 00-.324-.535.892.892 0 00-.635-.276.675.675 0 00-.483.206.632.632 0 00-.178.44v.022-.001a.943.943 0 00.303.648l.001.001c.168.158.381.27.617.313l.008.001-.115.324a1.691 1.691 0 01-.735-.417c-.569-.543-.675-1.23-.256-1.668zM2.021 11.277l-.183.523 1.946.684.183-.523zm1.729 1.138l-1.838-.649.142-.415L3.892 12zm20.288 14.747l-.182-.377-.189.373-.414.057.297.295-.075.411.373-.191.368.198-.067-.413.302-.289zm.108.666l-.295-.159-.302.154.061-.331-.24-.238.334-.047.152-.301.144.304.333.052-.243.232zm3.638-2.791l.344-.432-1.622-1.28-.344.432zm-1.269-1.638l1.537 1.213-.277.349-1.537-1.214zM1.813 15.001v-.021l1.677-1.063.091-.632-2.04-.294-.07.482 1.449.209v.018l-1.631 1.045-.098.657 2.046.296.069-.482zm1.377.637l-1.939-.28.087-.579 1.636-1.049v-.094l-1.441-.208.054-.375 1.933.278-.079.555-1.681 1.065v.097l1.484.216zm9.554-13.669l.324 1.666.541-.108-.318-1.667.796-.151-.068-.359-2.127.408.055.363zm1.231-.556l.049.252-.797.151.324 1.668-.432.087-.324-1.665-.802.148-.039-.256zm14.181 10.645l1.972-.611-.163-.529-1.972.61zm1.903-.648l-1.868.578-.132-.421 1.869-.577zm-4.348 12.989l.128.441-.865.812-.422-.162-.432.411 2.184.776.432-.407-.619-2.254zm.58 2.216l-2.075-.736.345-.324.421.162.915-.858-.129-.441.316-.297.587 2.135zm1.614-15.43l.332-.158-.492-.973 1.534-.73-.24-.508-1.867.881zm1.303-1.888l-1.532.732.492.973-.233.108-.691-1.387 1.769-.835zM11.883 4.011l-.659-1.957-.521.172.655 1.961zm-.694-1.889l.626 1.855-.423.142-.622-1.858zm10.438 27.249l-.222-.456 1.025-.502-.159-.324-1.021.495-.201-.415 1.16-.562-.159-.324-1.653.801.899 1.855 1.708-.835-.158-.324zm-.305.495l-.852-1.758 1.556-.757.108.227-1.161.565.249.512 1.021-.495.108.227-1.025.502.269.553 1.221-.591.108.227zM15.351 3.334l.541-.025-.037-.784.917-1.321-.612.028-.563.882h-.009l-.649-.825-.662.03 1.038 1.242zm-.432-1.989l.631.803.025.021h.055l.564-.883.475-.022-.865 1.245.036.748-.432.021-.035-.736-.979-1.173zm5.09 1.466c.108-.385-.124-.717-.593-.849s-.841.037-.946.413.152.724.591.847.84-.031.948-.411zm-6.767 3.766l-.387-.376-2.689.404.041.301 3.035-.329zm.795 1.056l.038-.251-.125-.131-6.158 1.972.08.301 6.165-1.891zm7.767-1.028l-2.689-.404-.386.375 3.034.329.041-.299zM8.988 21.755h1.329a17.067 17.067 0 00-1.35-1.842l.021.026z"/><path d="M8.517 22.197v-2.752c-.469-.371-.842-.663-1.43-.663-.564 0-1.016.251-1.016.616 0 .445.791.771 1.571.792v2.848h3.568a31.176 31.176 0 01-.577-.841zm6.078-13.459L15.994 8l1.399.736-.267-1.558 1.131-1.104-1.563-.227-.699-1.415-.698 1.417-1.565.227 1.132 1.104zm1.092-2.397l.352-.719.352.719.788.116-.57.56.134.789-.705-.373-.706.373.135-.789-.57-.56zm10.691 11.342l-.352-1.161c-.016.564-.476 1.846-2.727 1.846-1.645 0-3.325-1.147-4.607-1.147-1.125 0-1.601.541-1.854.921.178.16.558.497.778.682-.216.225-.553.924-.671 1.304a2.073 2.073 0 01.963-.178h-.005c1.424 0 2.435 1.24 5.385 1.24 2.44 0 3.311-1.674 3.311-2.318-.005-.347-.157-.951-.222-1.189zm-7.277 1.901l-1.065-.188.266-1.53.267.048-.224 1.284.798.142zm.685.26l-.255-.094.532-1.458.255.094zm1.578.35a.604.604 0 00.395-.001l-.004.001.082-.279-.245-.071.068-.227.496.147-.186.625a.965.965 0 01-.691.045l.007.002a.775.775 0 01-.557-.946l-.001.005c0-.019.011-.038.017-.057a.786.786 0 01.974-.546l-.006-.001.023.006a.84.84 0 01.507.368l.002.003-.224.149a.61.61 0 00-.362-.283l-.004-.001a.524.524 0 00-.632.372l-.001.004v.009a.512.512 0 00.334.675l.004.001zm2.584.401l-.032-.649-.734.037.031.649-.27.013-.076-1.551.27-.014.031.649.735-.037-.031-.649.27-.013.076 1.55zm1.754-.654l-.237.137-.39-1.189-.426.247-.078-.247 1.081-.629.078.247-.424.245zM17.905 7.383l.039.251 6.164 1.891.08-.299-6.157-1.973-.127.131zm.667 16.519c-.026-.124-.136-.174-.306-.136l-.382.085.09.403.361-.081c.17-.038.268-.131.237-.271z"/><path d="M23.47 22.197h-5.416c-.949 0-1.189.202-1.356.324.187-.373.629-.765 1.533-.765h4.763v-.285c-2.773-.087-3.841-1.235-5.059-1.235-.905 0-1.203.245-1.395.387.108-.47.275-1.255.717-1.73-.19-.168-.541-.483-.776-.701.496-.946 1.256-1.247 2.254-1.247a3.48 3.48 0 011.083.195l-.025-.007v-.124h2.109v.377H20.54l.087.031c.806.292 1.713.649 2.37.649v-7.07l.478.125v6.96c1.041.054 2.222-.604 2.222-1.391 0-.192-.178-.358-.459-.358-.407 0-.741.266-.888.397v-2.93l1.96 1.595.168-.263-2.128-1.707v-2.778a31.671 31.671 0 00-1.347-.29V9.85c-.567-.042-2.759-.249-3.442-.263l-1.479-1.189.108.664.757.519c-1.431 0-2.27.156-2.685.414V21.55a1.258 1.258 0 00-.258.398l-.003.008a1.255 1.255 0 00-.257-.406l.001.001V9.999c-.415-.257-1.254-.413-2.683-.413l.757-.519.108-.672-1.514 1.202c-.432-.015-2.991.208-3.423.259v.504a30.79 30.79 0 00-1.35.287v2.776l-2.125 1.706.163.264 1.963-1.59v1.716c.145-.015.314-.024.484-.024h.038-.002c.134 0 .303.017.36.022v-4.413l.47-.108v4.615c.461.113.864.317 1.206.595l-.006-.004v-.182h2.041v.377h-1.8c.252.22.482.447.697.688l.007.008v-.087h.769v.377h-.514c.238.281.484.595.741.944v-.333h.665v.377h-.632c.077.108.153.216.232.324l.223.317v-.028h.812v.377h-.565c.452.637 1.081 1.514 1.416 1.909.957 1.133 1.917 1.601 2.831 1.769-1.354 0-2.442-.724-3.334-1.946-.341-.471-1.718-2.388-1.718-2.388-.706-.927-2.004-2.928-3.892-2.928-1.535 0-1.926.504-2.179 1.355-.08.27-.163.639-.284 1.098a2.28 2.28 0 00-.099.564v.006c.013.227.083.436.197.615l-.003-.005c-.051-.479.512-.91 1.342-.91 1.162 0 2.254 1.341 3.19 2.757.248.375.635.909.909 1.322.965 1.448 2.804 3.262 5.598 3.262 2.749 0 4.917-1.361 5.763-2.801h1.748v-1.675a5.822 5.822 0 01-.863.108l-.014.001zm-4.011-5.794h-.757v-.377h.757zm-.226-2.358v.377h-.597v-.377zm-.584-.609v-.377h.956v.377zm.619 1.974v-.377h1.113v.377zm.341-.986v-.378h.464v.378zm2.296 1.974h-2.021v-.377h2.023zm0-.988h-1.11v-.377h1.112zm0-.986h-1.441v-.378h1.443zm0-.988h-1.864v-.377h1.866zm-1.406-.987v-.378h1.405v.378zm-.78-1.365h2.188v.375h-2.188zm-.242.986h.691v.378h-.691zm-.838-.986h.72v.375h-.72zm-1.436.385a1.423 1.423 0 011.085-.384h-.005v.375a2.876 2.876 0 00-1.098.297l.017-.008zm0 .988c.188-.15.541-.396 1.221-.386h.593v.378h-.576a2.941 2.941 0 00-1.255.297l.017-.008zm0 .987c.305-.21.674-.348 1.072-.385l.009-.001v.377a2.685 2.685 0 00-1.096.297l.015-.007zm0 .987a2.23 2.23 0 011.072-.385l.009-.001v.378a2.83 2.83 0 00-1.097.297l.016-.007zm1.221.601h.495v.377h-.476a3.01 3.01 0 00-1.256.298l.018-.008v-.281a1.947 1.947 0 011.221-.386h-.003zm-1.221 1.375a2.294 2.294 0 011.072-.385l.009-.001v.377a2.83 2.83 0 00-1.097.297l.016-.007zm-3.387-5.318a1.426 1.426 0 011.082.385l-.001-.001v.282a2.808 2.808 0 00-1.072-.289h-.009zm1.081 1.372v.282a2.916 2.916 0 00-1.236-.29h-.58v-.378h.594c.682-.01 1.028.236 1.219.386zm-1.081.979v-.377c.407.036.776.175 1.089.391l-.008-.005v.281a2.652 2.652 0 00-1.074-.289h-.007zm1.081.996v.282a2.773 2.773 0 00-1.073-.289h-.008v-.374c.407.034.777.171 1.089.387l-.008-.005zm-2.032-.391h.596v.378h-.596zm-.372-.609v-.377h.957v.377zm.249-2.352h.719v.375h-.719zm-.119.986v.378h-.69v-.378zm-.597 1.975h.463v.378h-.463zm-1.832-.609v-.377h1.867v.377zm1.729-2.352h.463v.375h-.463zm-1.816 1.356l.494-1.881h.493l.531 1.881h-.389l-.108-.452h-.581l-.108.451zm1.198 2.97h-1.111v-.377h1.111zm.331-.987h-1.442v-.377h1.442zm.081.987v-.377h1.114v.377zm1.676.616v.377h-.757v-.377zm-1.081 1.358v-.376h1.398v.376zm2.585 2.27a2.652 2.652 0 00-1.074-.289h-.007v-.377h.036c.4 0 .766.146 1.048.388l-.002-.002zm0-.987a2.445 2.445 0 00-1.164-.29h-.545v-.378h.641c.626.028.889.247 1.069.383zm-1.081-2.265v-.377c.407.039.776.178 1.089.391l-.008-.005v.281a2.773 2.773 0 00-1.073-.289h-.008zm1.081.995v.281a2.68 2.68 0 00-.796-.253l-.015-.002v-.39c.312.053.587.182.815.367l-.003-.003zm0-1.693a2.96 2.96 0 00-1.235-.29h-.473v-.377h.493l.055-.001c.439 0 .844.145 1.169.39l-.005-.004zm-7.018 2.29l-1.068-.185.482-1.506.265.045-.405 1.266.769.134zm1.38.335l-.108.216-1.022-.541.719-1.373 1.012.541-.108.216-.779-.415-.187.357.531.279-.108.216-.53-.279-.194.37zm.341.713l-.179-.208.973-.853-.324-.372.189-.165.821.951-.189.165-.324-.372zm.939 1.349l1.04-.769-.29-.398.202-.149.742 1.015-.202.15-.291-.397-1.038.77zm1.383 1.879l-.162-.216.521-.391-.439-.593-.522.39-.161-.216 1.237-.928.162.216-.515.386.44.593.514-.385.161.216zm1.464.726l-.401-.395-.293.295.626.628-.172.173-.822-.822 1.09-1.098.813.817-.173.17-.617-.621-.283.287.4.396zm1.885.825a.464.464 0 01-.554.228l.003.001.076.718-.278-.159-.066-.658-.29-.166-.265.471-.236-.135.757-1.352.599.342c.305.174.402.447.254.711zm1.491.068l-.865-.132-.061.399.59.096-.038.241-.59-.095-.062.412.873.134-.037.241-1.141-.175.231-1.535 1.131.173zm1.838 1.143l-.692.159-.336-1.514.676-.151c.303-.068.528.038.579.277a.37.37 0 01-.137.387l-.001.001c.189.021.334.095.381.303.066.268-.129.464-.465.538zm1.227-.355l-.708-1.379.461-.24h.529l-.638.332.185.359.525-.267.108.216-.526.267.191.371.785-.409.108.216z"/><path d="M18.443 24.385l-.419.095.092.415.439-.098c.181-.041.275-.137.243-.276s-.147-.183-.355-.136zm-3.571-1.073l-.344-.195-.258.45.345.196c.169.096.324.069.404-.07s.028-.281-.147-.381zm-4.038-12.616l-.279 1.016h.56l-.281-1.016zm8.964 6.688h.743a17.133 17.133 0 00-.741-.253zm-9.608-.986h.241a6.504 6.504 0 00-.241-.196zm2.426 2.612l.002.35h.246l-.249-.35zm-1.481-1.626h.255a11.27 11.27 0 00-.255-.291zm.996.988h.032l-.032-.044v.044z"/></svg>