<?xml version="1.0" encoding="UTF-8"?>
<svg id="Layer_1" xmlns="http://www.w3.org/2000/svg" xmlns:xlink="http://www.w3.org/1999/xlink" version="1.1" viewBox="0 0 215 215">
  <!-- Generator: Adobe Illustrator 29.7.1, SVG Export Plug-In . SVG Version: 2.1.1 Build 8)  -->
  <defs>
    <style>
      .st0 {
        fill: url(#linear-gradient1);
      }

      .st1 {
        fill: url(#linear-gradient);
      }

      .st2 {
        fill: #ffcd03;
      }
    </style>
    <linearGradient id="linear-gradient" x1="-20.3" y1="180.6" x2="234.9" y2="33.3" gradientTransform="translate(0 215) scale(1 -1)" gradientUnits="userSpaceOnUse">
      <stop offset="0" stop-color="#1b3d6d"/>
      <stop offset="0" stop-color="#1b3d6d"/>
      <stop offset=".2" stop-color="#214a84"/>
      <stop offset=".4" stop-color="#245393"/>
      <stop offset=".5" stop-color="#265698"/>
      <stop offset=".9" stop-color="#008ccc"/>
    </linearGradient>
    <linearGradient id="linear-gradient1" x1="116.2" y1="66.9" x2="179.6" y2="66.9" gradientTransform="translate(0 215) scale(1 -1)" gradientUnits="userSpaceOnUse">
      <stop offset="0" stop-color="#f7eb5f"/>
      <stop offset=".5" stop-color="#ffcd03"/>
      <stop offset=".9" stop-color="#f78d2d"/>
    </linearGradient>
  </defs>
  <rect class="st1" x="-.5" width="215.6" height="216.1"/>
  <g>
    <polygon class="st2" points="45 67.8 54.3 67.8 54.3 97.4 48.8 97.4 48.8 105.4 69.2 105.4 69.2 97.4 63.7 97.4 63.7 67.8 72.9 67.8 72.9 76.7 81.5 76.7 81.5 59.8 36.4 59.8 36.4 76.7 45 76.7 45 67.8"/>
    <path class="st2" d="M124.6,65.6c-2.1-2-4.7-3.7-7.6-4.8-2.9-1.1-6.1-1.7-9.7-1.7s-6.9.6-9.8,1.7c-2.9,1.1-5.5,2.7-7.6,4.8-2.2,2.1-3.8,4.5-5,7.4-1.2,2.8-1.8,5.9-1.8,9.4s.6,6.7,1.8,9.6c1.2,2.9,2.9,5.4,5,7.5,2.1,2.1,4.6,3.8,7.6,4.9,3,1.1,6.2,1.7,9.8,1.7h.1c3.5,0,6.7-.6,9.7-1.7,2.9-1.2,5.5-2.8,7.6-4.9,2.2-2.1,3.8-4.6,5-7.5,1.1-2.8,1.7-6,1.7-9.5s-.6-6.6-1.8-9.5c-1.2-2.8-2.9-5.3-5-7.4ZM119.9,90.1c-1.3,2.2-3,4-5.1,5.2-2.2,1.3-4.7,1.9-7.4,1.9-2.8,0-5.3-.6-7.4-1.9-2.1-1.3-3.8-3-5-5.2-1.2-2.2-1.8-4.8-1.8-7.6s.6-5.3,1.8-7.5,2.9-3.9,5-5.1c2.1-1.2,4.5-1.8,7.4-1.8s5.4.6,7.5,1.8c2.1,1.2,3.8,2.9,5,5.1s1.8,4.6,1.8,7.5-.5,5.4-1.8,7.6Z"/>
    <path class="st2" d="M170.7,63.2c-2.8-2.3-7-3.4-12.6-3.4h-24.7v8h5.5v29.6h-5.5v8h20.4v-8h-5.5v-11.5h9.4c3.2,0,6-.3,8.2-1.1,2.2-.7,4-1.7,5.3-3,1.3-1.3,2.2-2.7,2.8-4.3.6-1.5.9-.7.9-4.8s-1.4-7.2-4.2-9.5ZM163.4,77.4c-1.3.9-3.1,1.4-5.6,1.4h-9.5v-11h9.4c2.3,0,4.1.4,5.5,1.3,1.4.8,2.1,2.4,2.1,4.2s-.6,3.2-1.9,4.1Z"/>
    <path class="st2" d="M56.5,117.8h-6.3s0,0,0,.1h-1.8c-.2,1-.5,1.8-1.1,2.5-.6.7-1.2,1.2-2.1,1.6-.9.3-1.9.5-3,.5h-3.1,0v8.8h1.8c1.6,0,2.8-.4,3.8-1.2.9-.7,1.7-2.1,2.2-4h.3v29.3h-8.5v8h26.2v-8h-8.4v-37.6Z"/>
    <path class="st2" d="M86.3,164.1s0,0,0,0c0,0,0,0,0,0h0Z"/>
    <path class="st2" d="M96.3,120c-2.7-1.9-6.1-2.8-10-2.8s-7.2.9-10,2.8c-2.8,1.9-4.9,4.6-6.4,8.1s-2.2,7.6-2.2,12.5.7,9.1,2.2,12.6,3.6,6.2,6.4,8.1c2.7,1.9,6.1,2.8,10,2.8,4,0,7.3-.9,10-2.8,2.8-1.9,4.9-4.6,6.4-8.1s2.2-7.8,2.2-12.6-.7-9-2.2-12.5-3.6-6.2-6.4-8.1ZM93.1,151.4c-1.5,2.5-3.8,3.8-6.8,3.8s-5.3-1.2-6.8-3.8c-1.5-2.6-2.3-6.3-2.3-10.9s.8-8.2,2.3-10.7c1.6-2.5,3.8-3.8,6.8-3.8s5.3,1.3,6.8,3.8,2.3,6,2.3,10.7-.8,8.3-2.3,10.9Z"/>
  </g>
  <path class="st0" d="M169.7,159.5h-.3l-21.2-3.2h0l-7.1-1.7h-.3l-17-5.7c-.2-.1-.4-.2-.7-.3-.4,0-1.1-.1-1.8.4-1.8,1.1-3.5,4.4-4.5,8.4-1.1,4.6-.9,10,1.7,10.6h.7l17.8,2.5-3.5,5.3c-.1.2-.2.5,0,.8,0,.3.4.4.6.4l3.9.3,1.9,3.5c.1.2.4.4.7.4h0c.3,0,.5-.1.7-.4l3.1-4.7.6,5.6c0,.3.2.5.4.6h.3c.1,0,.3,0,.4-.1l3.2-2.3,3.7,1.5c.3.1.5,0,.8,0,.2-.2.3-.4.3-.7l-.7-5.6,11.5,3.7h.5c.4,0,.8,0,1.3-.4,1.8-1.1,3.5-4.4,4.5-8.4.9-4,.8-7.7-.3-9.5-.4-.7-.9-1-1.3-1.1h.1ZM148,157.8c.3,0,.7.7.9,1.8-.7-.3-1.4-.4-2.2-.4-1.2,0-2.3.3-3.3.9,0-1.4-.1-2.6-.5-3.5l5,1.2h.1ZM146.7,170.5c-2.6,0-4.8-2.2-4.9-4.8v-.4c0-1,.4-2,1.1-2.7.1,0,.3-.2.3-.4.9-.9,2.1-1.5,3.5-1.5,2.7,0,4.9,2.2,4.9,4.9s-2.2,4.9-4.9,4.9h0ZM121.1,163.9c-.3-.5-.4-2.3.2-5.1.7-2.8,1.6-4.3,2.1-4.7.2.4.3,1.4,0,3.1,0,.5-.2,1-.3,1.5-.4,1.8-1,3.3-1.6,4.5-.2.3-.4.5-.5.7ZM118.3,157.5c1-4.1,2.7-6.7,3.8-7.4,0,0,.3-.2.5-.2h.3c.4.5.7,1.3.8,2.6-1.8-.4-3.2,2.9-4,5.9-.6,2.7-.9,6,.5,6.9-.3.4-.6.6-.9.8,0,0-.2.1-.3.1h-.5c-.9-.6-1.5-4.1-.4-8.7h.2ZM121.3,166.6c.6-.6,1.1-1.5,1.7-2.5.7-1.2,1.3-2.9,1.7-4.5,0-.5.2-1.1.3-1.6.5-2.6.6-5.4,0-7.2l15.5,5.2h.4c.6.4,1.2,2.3.9,5.5-.8,1-1.3,2.3-1.4,3.7l-2.4,3.7-16.6-2.4h-.1ZM140.6,178.9l-1.5-2.7c-.1-.2-.4-.4-.6-.4l-3.1-.3,3.4-5.2h0c0-.1,1.7-2.7,1.7-2.7.7,2.1,2.4,3.7,4.6,4.2l-1,1.4c-.1,0-.2.2-.3.4l-3.4,5.2h.2ZM149.6,178.4h-.8l-2.5,1.8-.7-6.1,1.4-2.2c1.7,0,3.2-.8,4.3-1.9l1.1,9.4-2.9-1.1h0ZM169.7,169.7c-1,4.1-2.7,6.7-3.8,7.4-.2.1-.4.2-.6.2h-.2l-11.9-3.9-.6-5.2c.3-.8.5-1.7.5-2.6,0-2.1-1-3.9-2.5-5.1,0-1.1-.3-1.9-.5-2.5l19.1,2.9c.2,0,.4.2.4.4.7,1.1,1,4.2,0,8.4h.1ZM164,155.5h0ZM179.1,124.1l-29.6-10.3h-.5l-29.6,10.3c-.3,0-.5.4-.5.8s.2.7.5.8l10.3,3.6v11.5c0,.4.2.7.5.8l18.8,6.5h.6l13.7-4.8v1.9l-3.1,7.5s-.1.1-.1.2c-.1.3,0,.6.2.8,1.2,1.2,2.5,1.8,3.8,1.9,1.3,0,2.6-.6,3.8-1.9.2-.2.3-.5.2-.8l-3.1-7.6h0v-2.6l3.5-1.2c.3-.1.5-.4.5-.8v-11.5l10.2-3.5c.3,0,.5-.4.5-.8s-.2-.7-.5-.8h0ZM161.8,152.9l2.3-5.7,2.3,5.6c-1.6,1.4-3,1.4-4.6,0h0ZM149.3,146.4l-18-6.3v-10.4l17.8,6.2h.5l13.8-4.8v10.5l-14,4.9h-.1ZM167.3,140.1l-2.4.8v-10.5l2.4-.8v10.5ZM163.9,129.2l-14.4-5c-.4,0-.8,0-1,.5-.1.4,0,.8.5,1l12.6,4.4-12.3,4.3-27.3-9.5,27.3-9.5,27.2,9.5-12.6,4.4h0Z"/>
</svg>