<?xml version="1.0" encoding="UTF-8"?>
<svg id="Layer_1" xmlns="http://www.w3.org/2000/svg" xmlns:xlink="http://www.w3.org/1999/xlink" version="1.1" viewBox="0 0 215 215">
  <!-- Generator: Adobe Illustrator 29.7.1, SVG Export Plug-In . SVG Version: 2.1.1 Build 8)  -->
  <defs>
    <style>
      .st0 {
        fill: url(#linear-gradient1);
      }

      .st1 {
        fill: url(#linear-gradient);
      }

      .st2 {
        fill: #ffcd03;
      }
    </style>
    <linearGradient id="linear-gradient" x1="-20.2" y1="180.6" x2="235" y2="33.3" gradientTransform="translate(0 215) scale(1 -1)" gradientUnits="userSpaceOnUse">
      <stop offset="0" stop-color="#1b3d6d"/>
      <stop offset="0" stop-color="#1b3d6d"/>
      <stop offset=".2" stop-color="#214a84"/>
      <stop offset=".4" stop-color="#245393"/>
      <stop offset=".5" stop-color="#265698"/>
      <stop offset=".9" stop-color="#008ccc"/>
    </linearGradient>
    <linearGradient id="linear-gradient1" x1="107.1" y1="77.1" x2="166.7" y2="77.1" gradientTransform="translate(0 215) scale(1 -1)" gradientUnits="userSpaceOnUse">
      <stop offset="0" stop-color="#f7eb5f"/>
      <stop offset=".5" stop-color="#ffcd03"/>
      <stop offset=".9" stop-color="#f78d2d"/>
    </linearGradient>
  </defs>
  <rect class="st1" x="-.4" width="215.6" height="216.1"/>
  <path class="st0" d="M166.4,138.4c-.3-.6-.8-1-1.4-1.1-1.7-.4-5.2-1.6-10.8-5.4.6-1.7,1.2-4.5.4-7.8-.1-.6-.5-1.1-1.1-1.3-.6-.2-1.3,0-1.8.4-.1,0-.2.2-.4.4-.7.8-1,1.1-4,1.9h-.1s-.6.3-1.1.9c-5.6-3-12-3.8-18-2.2-5.5,1.5-10.3,4.8-14.3,9.7,0,0-.3.4-.7,1.1-.6-1.1-1.3-1.8-2.2-2-1.6-.4-2.8.9-2.9,1-1,1.1-1.2,2.2-1.1,2.9.2,1.3,1.1,2.3,1.8,3,.2.1.3.2.5.2h.2c.3,0,.5-.2.6-.5.2-.4,0-.9-.2-1.2-.4-.3-1.1-1-1.1-1.7s0-.9.6-1.3c0,0,.7-.7,1.3-.5.6.2,1.2.9,1.6,2.3-.2.5-.3,1-.5,1.6-.6,2.7-.6,7.1,2.8,12.4l7.3,11.9c.5.9,1.4,1.4,2.3,1.4h2.6c1.1,0,2.1-.7,2.5-1.9l.7-1.7c2.1.4,8.8,1.5,13.6-.7l.7,2.2c.4,1.2,1.5,2.1,2.6,2.1h2.6c1,0,1.9-.6,2.4-1.5,1.5-2.8,5.7-10.1,12.6-16.4.3-.3.6-.7.7-1.1l1.4-5.1c.2-.6,0-1.3-.2-1.9h.1ZM144.4,133.5c0,.3.2.5.4.7s.3.2.5.2,0,0,.1,0h.1c.4-.1.6-.5.6-1-.3-4.3,1.6-5.8,2-6,3.2-.9,3.5-1.3,4.7-2.4l.3-.3h0c1,4.5-.9,7.9-.9,8h0l1.4,1.1h0c4.8,3.4,9.2,5,11.1,5.5.2,0,.2.2.3.2v.4l-1.4,5.1s0,.2-.1.2c-7.1,6.5-11.4,14-13,16.9-.2.4-.5.6-.9.6h-2.6c-.5,0-.9-.3-1-.8l-1.3-4.2-.9.5c-5.1,2.9-13.7.9-14.1.8l-.7-.2-1.2,3.1c-.2.4-.6.7-1,.7h-2.6c-.4,0-.7-.2-.9-.5l-7.3-11.9c-5.6-9-1-14.6-.8-14.8,3.8-4.7,8.3-7.8,13.5-9.2,5.5-1.5,11.3-.8,16.5,1.9-.6,1.2-1.1,3-.9,5.5h0ZM128.3,128.8c2-.7,7.2-2,12.2,0,.5.2.7.8.5,1.2,0,.2-.3.4-.5.5h-.6c-4.4-1.7-9.3-.5-11.1,0h-.2c-.1,0-.3,0-.4-.1-.2-.1-.3-.3-.4-.5h0c-.2-.5,0-1.1.6-1.2h0ZM149.9,139.7c0-.7.6-1.2,1.2-1.2s1.2.6,1.2,1.2-.6,1.2-1.2,1.2-1.2-.6-1.2-1.2ZM134.2,121.6c2.8,0,5.2-2.3,5.2-5.2s-2.3-5.2-5.2-5.2-5.2,2.3-5.2,5.2,2.3,5.2,5.2,5.2ZM130.9,116.4c0-1.8,1.5-3.3,3.3-3.3s3.3,1.5,3.3,3.3-1.5,3.3-3.3,3.3-3.3-1.5-3.3-3.3Z"/>
  <g>
    <polygon class="st2" points="50.3 89.4 50.3 97.4 70.7 97.4 70.7 89.4 65.2 89.4 65.2 59.8 74.4 59.8 74.4 68.7 83 68.7 83 51.8 37.9 51.8 37.9 68.7 46.5 68.7 46.5 59.8 55.8 59.8 55.8 89.4 50.3 89.4"/>
    <path class="st2" d="M126.2,57.6c-2.1-2-4.7-3.7-7.6-4.8-2.9-1.1-6.1-1.7-9.7-1.7s-6.9.6-9.8,1.7c-2.9,1.1-5.5,2.7-7.6,4.8-2.2,2.1-3.8,4.5-5,7.4-1.2,2.8-1.8,5.9-1.8,9.4s.6,6.7,1.8,9.6,2.9,5.4,5,7.5,4.6,3.8,7.6,4.9c3,1.1,6.2,1.7,9.8,1.7h0c3.5,0,6.8-.5,9.7-1.7,2.9-1.2,5.5-2.8,7.6-4.9,2.2-2.1,3.8-4.6,5-7.5,1.1-2.8,1.7-6,1.7-9.5s-.6-6.6-1.8-9.5c-1.2-2.8-2.9-5.3-5-7.4ZM121.5,82c-1.3,2.2-3,4-5.1,5.2-2.2,1.3-4.7,1.9-7.5,1.9-2.8,0-5.3-.6-7.4-1.9-2.1-1.3-3.8-3-5-5.2-1.2-2.2-1.8-4.8-1.8-7.6s.6-5.3,1.8-7.5c1.2-2.2,2.8-3.9,5-5.1,2.1-1.2,4.5-1.8,7.4-1.8s5.4.6,7.5,1.8,3.8,2.9,5,5.1c1.2,2.2,1.8,4.6,1.8,7.5s-.5,5.4-1.8,7.6Z"/>
    <path class="st2" d="M172.2,55.2c-2.8-2.3-7-3.4-12.6-3.4h-24.6v8h5.5v29.6h-5.5v8h20.4v-8h-5.5v-11.5h9.3c3.2,0,6-.3,8.2-1.1,2.2-.7,4-1.7,5.3-3,1.3-1.3,2.2-2.7,2.8-4.3.6-1.5.9-.7.9-4.8s-1.4-7.2-4.2-9.5ZM164.9,69.4c-1.3.9-3.1,1.4-5.6,1.4h-9.4v-11h9.3c2.3,0,4.1.5,5.5,1.3,1.4.8,2.1,2.4,2.1,4.2s-.6,3.2-1.9,4.1Z"/>
    <path class="st2" d="M87.7,125.8c-2.3-1.3-5.6-2-7.6-2s-3.7.4-5.1,1.1c-1.4.8-2.5,1.8-3.3,3.2-.8,1.4-1.4,3-1.8,4.9h-.4l2.3-15.2h19.8v-8h-28l-3.7,26,8.9,1.6v-.4c0,0,.1.3.1.3.5-1.7,1.5-3,3-3.9,1.5-.9,3.5-1.4,5.1-1.4s3,.3,4.2.9c1.2.7,2.1,1.6,2.8,2.7.7,1.1,1,2.5,1,4s-.4,2.9-1.1,4c-.7,1.2-1.7,2-2.9,2.7s-2.4,1-4.2,1-3.3-.4-4.6-1.2c-1.3-.8-2.3-1.9-2.9-3.3l-8.9,2.9c1.2,3,3.2,5.5,6,7.3,2.9,1.8,7.1,2.7,10.6,2.7s6.6-.6,9.3-2c2.7-1.3,4.8-3.2,6.3-5.7s2.3-5.5,2.3-8.6-.6-5.8-1.9-8.1c-1.3-2.3-3.1-4.2-5.3-5.5Z"/>
    <path class="st2" d="M60.2,145.8h.2c0-.1,0-.1,0-.2v.2Z"/>
  </g>
</svg>