<?xml version="1.0" encoding="UTF-8"?>
<svg id="Layer_1" xmlns="http://www.w3.org/2000/svg" xmlns:xlink="http://www.w3.org/1999/xlink" version="1.1" viewBox="0 0 215 215">
  <!-- Generator: Adobe Illustrator 29.7.1, SVG Export Plug-In . SVG Version: 2.1.1 Build 8)  -->
  <defs>
    <style>
      .st0 {
        fill: url(#linear-gradient1);
      }

      .st1 {
        fill: url(#linear-gradient);
      }

      .st2 {
        fill: #ffcd03;
      }
    </style>
    <linearGradient id="linear-gradient" x1="-20.1" y1="180.6" x2="235.1" y2="33.3" gradientTransform="translate(0 215) scale(1 -1)" gradientUnits="userSpaceOnUse">
      <stop offset="0" stop-color="#1b3d6d"/>
      <stop offset="0" stop-color="#1b3d6d"/>
      <stop offset=".2" stop-color="#214a84"/>
      <stop offset=".4" stop-color="#245393"/>
      <stop offset=".5" stop-color="#265698"/>
      <stop offset=".9" stop-color="#008ccc"/>
    </linearGradient>
    <linearGradient id="linear-gradient1" x1="71.3" y1="72.2" x2="143.6" y2="72.2" gradientTransform="translate(0 215) scale(1 -1)" gradientUnits="userSpaceOnUse">
      <stop offset="0" stop-color="#f7eb5f"/>
      <stop offset=".5" stop-color="#ffcd03"/>
      <stop offset=".9" stop-color="#f78d2d"/>
    </linearGradient>
  </defs>
  <rect class="st1" x="-.3" width="215.6" height="216.1"/>
  <g>
    <path class="st2" d="M103.5,48.5h-7.4l-2.6,12h-7.3l2.6-12h-7.4l-2.6,12h-7v6.8h5.5l-1.6,7.5h-6.6v6.8h5.1l-2.6,12h7.4l2.6-12h7.3l-2.6,12h7.4l2.6-12h7v-6.8h-5.5l1.6-7.5h6.6v-6.8h-5.1l2.6-12ZM90.4,74.8h-7.3l1.6-7.5h7.3l-1.6,7.5Z"/>
    <path class="st2" d="M137.1,80.7c0,1.8-.2,3.1-.9,3.8s-1.6,1.1-3,1.1-1.3,0-1.9-.2c-.6-.2-1.1-.3-1.7-.6-.6-.3-1.2-.4-1.8-.6-.7-.2-.9-.2-2.1-.2s-2.2.2-3.3.6c-1.1.4-1.9,1.1-2.7,2l-.4-.3c.4-.6.9-1.2,1.5-1.7,1.1-1.1,2.5-2,4.2-2.9l7.1-4.6c2.7-1.4,5-3,6.8-4.6,1.8-1.7,3.1-3.4,4-5.3.9-1.9,1.3-3.2,1.3-5.9s-.7-5-2-7.1c-1.3-2.1-3.2-3.8-5.6-5-2.4-1.2-5.3-1.8-8.7-1.8s-6.3.6-8.8,1.8-4.5,2.9-5.9,5.2c-1.4,2.2-2.2,4.9-2.4,8.1l9.4.5c0-2.2.9-4,2.2-5.3,1.3-1.3,3.1-1.9,5.4-1.9s2.6.3,3.6.8,1.8,1.3,2.3,2.1.8,1.3.8,2.9-.5,3-1.7,4.3c-1.2,1.3-2.8,2.6-4.9,4.1l-.2.3-6.6,4.4c-2.6,1.4-4.8,2.9-6.4,4.5-1.6,1.7-2.8,3.6-3.6,5.7-.7,2.1-1.1,4.6-1.1,7.4v1.5h7.5c0,0,0-.1,0-.2h1.7c.7-.6,1.4-1,2.2-1.2.8-.2,1.5-.3,2.3-.3s1.7.1,2.5.3c.8.2,1.7.4,2.6.7.9.2,1.8.5,2.8.7s-.4.3,3.2.3,6.4-1.1,8.4-3.4c2-2.3,3-5.6,3-10h-9.1Z"/>
    <path class="st2" d="M146.2,80.6s0,0,0,.1h.1,0Z"/>
  </g>
  <path class="st0" d="M122,144.4v-8.8h-6.5v-1.8l14.1-16.6,14.1,16.6v1.8h-6.5v39.4h-2.3v-41.6h5.4l-10.6-12.5-10.6,12.5h5.4v41.6h-2.3v-28.3h-10.5v28.3h-2.3v-18.1h-10.5v18.1h-2.3v-8.4h-10.2v8.4h-2.3v-10.7h12.4v-9.7h12.8v-10.2h12.8,0ZM91.1,141.2v-3.2c2.3-.5,4.1-2.3,4.1-4.4s-2.5-4.2-4.6-5.4c-2.2-1.3-3.6-2.2-3.6-3.6s1.3-2.3,3-2.3,3,1,3,2.3h2.3c0-2.2-1.8-4-4.1-4.4v-3.2h-2.3v3.2c-2.3.5-4.1,2.3-4.1,4.4s2.5,4.3,4.7,5.5c2.1,1.2,3.5,2.1,3.5,3.5s-1.3,2.3-3,2.3-3-1-3-2.3h-2.3c0,2.2,1.8,4,4.1,4.4v3.2h2.3ZM89,147.8c-5-.2-9.5-2.4-12.9-6.1-3.3-3.7-5-8.5-4.8-13.4.2-5,2.4-9.5,6.1-12.9,3.7-3.3,8.4-5,13.4-4.8,10.2.5,18.2,9.3,17.7,19.5-.2,5-2.4,9.5-6.1,12.9-3.5,3.1-7.8,4.8-12.5,4.8s-.6,0-.9,0ZM89.1,145.5c4.4.2,8.5-1.3,11.8-4.2s5.1-6.9,5.4-11.3c.4-9-6.5-16.7-15.5-17.1h-.8c-4.1,0-7.9,1.5-10.9,4.2-3.2,2.9-5.1,6.9-5.4,11.3s1.3,8.5,4.2,11.8c2.9,3.2,6.9,5.1,11.3,5.4h0Z"/>
</svg>