<?xml version="1.0" encoding="UTF-8"?>
<svg id="Layer_1" xmlns="http://www.w3.org/2000/svg" xmlns:xlink="http://www.w3.org/1999/xlink" version="1.1" viewBox="0 0 215 215">
  <!-- Generator: Adobe Illustrator 29.7.1, SVG Export Plug-In . SVG Version: 2.1.1 Build 8)  -->
  <defs>
    <style>
      .st0 {
        fill: url(#linear-gradient1);
      }

      .st1 {
        fill: url(#linear-gradient);
      }

      .st2 {
        fill: #ffcd03;
      }
    </style>
    <linearGradient id="linear-gradient" x1="-20.3" y1="180.6" x2="234.9" y2="33.3" gradientTransform="translate(0 215) scale(1 -1)" gradientUnits="userSpaceOnUse">
      <stop offset="0" stop-color="#1b3d6d"/>
      <stop offset="0" stop-color="#1b3d6d"/>
      <stop offset=".2" stop-color="#214a84"/>
      <stop offset=".4" stop-color="#245393"/>
      <stop offset=".5" stop-color="#265698"/>
      <stop offset=".9" stop-color="#008ccc"/>
    </linearGradient>
    <linearGradient id="linear-gradient1" x1="74.1" y1="73.2" x2="140.4" y2="73.2" gradientTransform="translate(0 215) scale(1 -1)" gradientUnits="userSpaceOnUse">
      <stop offset="0" stop-color="#f7eb5f"/>
      <stop offset=".5" stop-color="#ffcd03"/>
      <stop offset=".9" stop-color="#f78d2d"/>
    </linearGradient>
  </defs>
  <rect class="st1" x="-.5" width="215.6" height="216.1"/>
  <g>
    <path class="st2" d="M77.1,72.5c-2.6-1.3-5.9-2.1-10-2.6v-10.9c1.3.3,2.5.9,3.6,1.7,1.8,1.3,2.9,3.1,3.4,5.2v.5h9.3v-14h-9.3v8.9h-.2c-.2-2.1-.9-3.9-1.9-5.3-1-1.4-2.4-2.5-4.2-3.2-.3-.1-.5-.2-.7-.3v-5.7h-2.4v5c-.8,0-1.8-.1-3.3-.1-4.5,0-8.1,1.2-10.6,3.4s-3.8,6.3-3.8,9.2.6,5.3,2,7.4c1.3,2,3.4,3.7,6.1,5,2.6,1.2,5.8,2,9.6,2.5v12.2c-1.7-.3-3.2-.9-4.5-1.8-2-1.4-3.2-3.3-3.7-5.7h0c0,0-9.4,0-9.4,0v14.1h9.4v-8.8h.3c.4,3.1,1.8,5.4,4,7,1.1.8,2.4,1.4,3.9,1.8v6h2.4v-5.6c.9.1,1.8.2,2.8.2h0c4.8,0,8.5-1,11.1-3.4,2.6-2.4,3.9-5.7,3.9-10s-.6-5.5-1.9-7.6c-1.3-2-3.3-3.7-6-4.9ZM60.8,68.3c-1.4-.6-2.5-1.3-3.2-2.1-.7-.8-1-1.3-1-2.8s.6-2.7,1.9-3.6c1.3-.9,2.5-1.3,5.2-1.3s.7,0,1,0v10.9c-1.6-.3-2.9-.7-3.9-1.1ZM73.4,90.1c-1.4,1-2.9,1.5-5.8,1.5s-.3,0-.5,0v-12.1c1.6.3,3,.6,4.1,1,1.5.6,2.5,1.2,3.2,2.1.7.9,1,1.3,1,3.2s-.7,3.3-2,4.3Z"/>
    <path class="st2" d="M116.4,74c2.1-1,3.8-2.2,5.1-3.9,1.4-1.8,2.1-3.9,2.1-6.2s-.7-4.5-2.1-6.3c-1.4-1.8-3.3-3.3-5.8-4.3-2.5-1.1-5.5-1.6-8.9-1.6s-6.3.5-8.8,1.6c-2.5,1-4.4,2.5-5.8,4.3-1.4,1.8-2.1,4-2.1,6.3s.7,4.4,2.1,6.2c1.2,1.6,2.9,2.9,5,3.8-2.6,1.2-4.6,2.7-6.1,4.7-1.5,2-2.2,4.2-2.2,6.8s.7,4.8,2.2,6.8c1.4,1.9,3.5,3.5,6.2,4.6,2.7,1.1,5.9,1.7,9.5,1.7s6.8-.6,9.5-1.7c2.7-1.1,4.7-2.6,6.2-4.6s2.2-4.2,2.2-6.8-.7-4.8-2.2-6.8c-1.4-2-3.4-3.5-6.1-4.6ZM100.7,62.4c.6-.8,1.5-1.5,2.5-2s2.3-.7,3.6-.7,2.6.2,3.6.7c1.1.5,1.9,1.1,2.5,2,.6.9.9,1.9.9,3s-.3,2.1-.9,2.9c-.6.8-1.5,1.4-2.5,1.9s-2.2.7-3.6.7-2.6-.2-3.6-.7c-1.1-.4-1.9-1.1-2.5-1.9s-.9-1.8-.9-2.9.3-2.1.9-3ZM113.9,87.2c-.7,1-1.7,1.7-2.9,2.3-1.2.5-2.6.8-4.2.8s-3-.2-4.2-.8c-1.2-.5-2.2-1.3-2.9-2.3s-1-2.1-1-3.4.3-2.5,1-3.5,1.7-1.8,2.9-2.4c1.2-.6,2.6-.9,4.2-.9s3,.3,4.2.9c1.2.6,2.2,1.4,2.9,2.4.7,1.1,1,2.2,1,3.5s-.3,2.4-1,3.4Z"/>
    <path class="st2" d="M168,79.8c-.8-1.5-1.9-2.7-3.4-3.6-1.4-.8-3-1.5-5-1.9v-.2c1.5-.4,2.7-1,3.8-1.7,2.8-1.8,4.2-4.5,4.2-8.4s-1.4-6.8-4.1-8.8-6.4-3-11.2-3h-25v8h5.5v29.6h-5.5v8h20.6c0,0,6.3,0,6.3,0,4.7,0,8.3-1.1,11-3.3,2.7-2.1,4-5.2,4-9.2s-.4-3.9-1.2-5.4ZM146.4,60.2h4.5c2.1,0,3.8.4,5.1,1.3,1.3.9,1.9,2.2,1.9,4s-.2,2-.7,2.9c-.5.9-1.2,1.6-2.2,2.1-.9.5-2.2.8-3.8.8h-9.1v-11.1h4.3ZM157.6,88.3c-1.5,1-3.3,1.5-5.7,1.5h-6.2c0,0,0,0,0,0h-3.6v-11.4h9.5c1.5,0,2.7,0,3.7.4s1.9.7,2.5,1.2c.6.5,1.1,1.1,1.4,1.8.3.6.5.3.5,2.2s-.6,3.3-2.1,4.3Z"/>
  </g>
  <path class="st0" d="M130.3,133c-4.9,0-10.1,1.3-10.1,4.1s5.2,4.1,10.1,4.1,6.2-.5,8.1-1.5v3.3c0,.6-2.9,2.2-8.1,2.2s-8.1-1.5-8.1-2.2v-1.4c0-.5-.4-1-1-1s-1,.4-1,1v25c0,2.8,5.2,4.1,10.1,4.1s10.1-1.3,10.1-4.1v-29.5c0-2.8-5.2-4.1-10.1-4.1h0ZM130.3,139.3c-5.3,0-8.1-1.5-8.1-2.2s2.9-2.2,8.1-2.2,8.1,1.5,8.1,2.2-2.9,2.2-8.1,2.2ZM138.5,160.8c0,.6-2.9,2.2-8.1,2.2s-8.1-1.5-8.1-2.2v-3.3c2,1.1,5.1,1.5,8.1,1.5s6.2-.5,8.1-1.5v3.3ZM138.5,154.9c0,.6-2.9,2.2-8.1,2.2s-8.1-1.5-8.1-2.2v-3.3c2,1.1,5.1,1.5,8.1,1.5s6.2-.5,8.1-1.5v3.3ZM130.3,147.2c3,0,6.2-.5,8.1-1.5v3.3c0,.6-2.9,2.2-8.1,2.2s-8.1-1.5-8.1-2.2v-3.3c2,1.1,5.1,1.5,8.1,1.5ZM130.3,168.8c-5.3,0-8.1-1.5-8.1-2.2v-3.3c2,1.1,5.1,1.5,8.1,1.5s6.2-.5,8.1-1.5v3.3c0,.6-2.9,2.2-8.1,2.2ZM77.7,154.4c-.4-.5-.4-1.3,0-1.7l26.7-22.1c.7-.6,1.6-.5,2.2.2l2.9,3.7c0,.2.4.2.5,0l21.2-18.9-5.7-.4c-.7,0-1.2-.6-1.1-1.3,0-.7.6-1.2,1.3-1.1l7.4.6h1.3c.7,0,1.2.7,1.1,1.4v1.3h0l-.6,7.4c0,.7-.6,1.2-1.3,1.1h0c-.7,0-1.2-.6-1.1-1.3l.4-5.7-22.2,19.8c-.7.6-1.6.5-2.2-.2l-3.1-4-26,21.5c-.5.4-1.3.4-1.7-.1v-.2ZM86.2,161.2c-.2-.4-.7-.7-1.8-.8-.2,0-.3,0-.3-.2l-.2-.5c.3,0,.5,0,.8.1h.5v-.2c.2,0,0-.2,0-.3-.4,0-.8-.2-1.3-.2v-.3h-1v.2c-.9,0-1.5.4-1.4.9h0c.2.5.7.7,1.8.8.2,0,.3,0,.3.2v.3c.2.3.3.3-.3.2-.2,0-.4,0-.6-.1h-.5l-.2.2s0,.2.2.3c.5.1,1.1.2,1.7.2v.4h1v-.4c.9,0,1.5-.4,1.3-.9h0ZM82.6,160h0c0-.1,0-.3.5-.3l.2.6c-.5,0-.6-.2-.7-.3ZM84.5,161.5l-.2-.6c.5,0,.7.2.7.3h0c0,.2,0,.3-.5.3ZM107.3,144.9c-4.9,0-10.1,1.3-10.1,4.1s5.2,4.1,10.1,4.1,6.2-.5,8.1-1.5v3.3c0,.6-2.9,2.2-8.1,2.2s-8.1-1.5-8.1-2.2v-1.4c0-.5-.4-1-1-1s-1,.4-1,1v13.2c0,2.8,5.2,4.1,10.1,4.1s10.1-1.3,10.1-4.1v-17.7c0-2.8-5.2-4.1-10.1-4.1h0ZM107.3,151.1c-5.3,0-8.1-1.5-8.1-2.2s2.9-2.2,8.1-2.2,8.1,1.5,8.1,2.2-2.9,2.2-8.1,2.2ZM107.3,159c3,0,6.2-.5,8.1-1.5v3.3c0,.6-2.9,2.2-8.1,2.2s-8.1-1.5-8.1-2.2v-3.3c2,1.1,5.1,1.5,8.1,1.5ZM107.3,168.8c-5.3,0-8.1-1.5-8.1-2.2v-3.3c2,1.1,5.1,1.5,8.1,1.5s6.2-.5,8.1-1.5v3.3c0,.6-2.9,2.2-8.1,2.2ZM84.2,156.7c-4.9,0-10.1,1.3-10.1,4.1s5.2,4.1,10.1,4.1,6.2-.5,8.1-1.5v3.3c0,.6-2.9,2.2-8.1,2.2s-8.1-1.5-8.1-2.2v-1.4c0-.5-.4-1-1-1s-1,.4-1,1v1.4c0,2.8,5.2,4.1,10.1,4.1s10.1-1.3,10.1-4.1v-5.9c0-2.8-5.2-4.1-10.1-4.1h0ZM84.2,162.9c-5.3,0-8.1-1.5-8.1-2.2s2.9-2.2,8.1-2.2,8.1,1.5,8.1,2.2-2.9,2.2-8.1,2.2ZM132.8,137.7c-.2-.4-.7-.7-1.8-.8-.2,0-.3,0-.3-.2l-.2-.5c.3,0,.5,0,.8.1h.5v-.2c.2,0,0-.2-.1-.3-.4,0-.8-.2-1.3-.2v-.3h-1v.2c-.9,0-1.5.4-1.4.9h0c.2.5.7.7,1.8.8.2,0,.3,0,.3.2v.3c.2.3.3.3-.3.2-.2,0-.4,0-.6-.1h-.5l-.2.2s0,.2.2.3c.5.1,1.1.2,1.7.2v.4h1v-.4c.9,0,1.5-.4,1.3-.9h.1ZM129.2,136.4h0c0-.1,0-.3.5-.3l.2.6c-.5,0-.6-.2-.7-.3ZM131.1,138l-.2-.6c.5,0,.7.2.7.3h0c0,.2-.1.3-.5.3ZM109.6,149.3c-.2-.4-.7-.7-1.8-.8-.2,0-.3,0-.3-.2l-.2-.5c.3,0,.5,0,.8.1h.5v-.2c.2,0,0-.2,0-.3-.4,0-.8-.2-1.3-.2v-.3h-1v.2c-.9,0-1.5.4-1.4.9h0c.2.5.7.7,1.8.8.2,0,.3,0,.3.2v.3c.2.3.3.3-.3.2-.2,0-.4,0-.6-.1h-.5l-.2.2s0,.2.2.3c.5.1,1.1.2,1.7.2v.4h1v-.4c.9,0,1.5-.4,1.3-.9h0ZM105.9,148.1h0c0-.1,0-.3.5-.3l.2.6c-.5,0-.6-.2-.7-.3ZM107.9,149.7l-.2-.6c.5,0,.7.2.7.3h0c0,.2,0,.3-.5.3Z"/>
</svg>