<?xml version="1.0" encoding="UTF-8"?><svg id="Layer_1" xmlns="http://www.w3.org/2000/svg" width="256" height="256" viewBox="0 0 256 256"><defs><style>.cls-1{fill:none;}.cls-2{fill:#72c5e8;}</style></defs><rect class="cls-1" width="256" height="256"/><g><polygon points="172.05 223.98 32 223.98 32 90.34 90.34 32 171.76 32 171.76 83.95 163.76 83.95 163.76 40 93.65 40 40 93.65 40 215.98 164.05 215.98 164.05 195.81 172.05 195.81 172.05 223.98"/><polygon points="100 100 47.81 100 47.81 92 92 92 92 48 100 48 100 100"/><rect x="197.37" y="173.36" width="8" height="56.02" transform="translate(-83.41 201.37) rotate(-45)"/><rect x="115.9" y="132.07" width="8" height="31.88"/><rect x="136.02" y="112.08" width="8" height="51.87"/><rect x="156.15" y="124.08" width="8" height="39.87"/><path class="cls-2" d="m168.11,173.77c-7.62,6.32-17.39,10.12-28.03,10.12-24.25,0-43.99-19.73-43.99-43.99s19.73-43.99,43.99-43.99,43.99,19.73,43.99,43.99c0,10.74-3.87,20.58-10.28,28.22l5.67,5.67c7.85-9.11,12.62-20.95,12.62-33.89,0-28.67-23.32-51.99-51.99-51.99s-51.99,23.32-51.99,51.99,23.32,51.99,51.99,51.99c12.85,0,24.62-4.7,33.7-12.45l-5.67-5.67Z"/><rect class="cls-1" x="32" y="32" width="192" height="192"/></g></svg>