<?xml version="1.0" encoding="UTF-8"?><svg id="Layer_1" xmlns="http://www.w3.org/2000/svg" width="256" height="256" viewBox="0 0 256 256"><defs><style>.cls-1{fill:none;}.cls-2{fill:#72c5e8;}</style></defs><rect class="cls-1" width="256" height="256"/><g><polygon class="cls-2" points="224 156 200 156 200 148 216 148 216 60 64 60 64 92 56 92 56 52 224 52 224 156"/><rect class="cls-1" x="32" y="32" width="192" height="192"/><g><path d="m32,100v104h160v-104H32Zm8,8h24c0,13.23-10.77,24-24,24v-24Zm0,88v-24c13.23,0,24,10.77,24,24h-24Zm144,0h-24c0-13.23,10.77-24,24-24v24Zm0-32c-17.65,0-32,14.35-32,32h-80c0-17.65-14.35-32-32-32v-24c17.65,0,32-14.35,32-32h80c0,17.65,14.35,32,32,32v24Zm0-32c-13.23,0-24-10.77-24-24h24v24Z"/><path d="m112.01,123.97c-15.45,0-28.01,12.57-28.01,28.01s12.57,28.01,28.01,28.01,28.01-12.57,28.01-28.01-12.57-28.01-28.01-28.01Zm0,48.03c-11.04,0-20.01-8.98-20.01-20.01s8.98-20.01,20.01-20.01,20.01,8.98,20.01,20.01-8.98,20.01-20.01,20.01Z"/></g></g></svg>